<?xml version="1.0" encoding="utf-8"?>
<svg xmlns="http://www.w3.org/2000/svg" xmlns:xlink="http://www.w3.org/1999/xlink" style="margin: auto; background: none; display: block; shape-rendering: auto;" width="78px" height="78px" viewBox="0 0 100 100" preserveAspectRatio="xMidYMid">
<g transform="rotate(0 50 50)">
  <rect x="45.5" y="14" rx="0" ry="0" width="9" height="16" fill="#ffdac4">
    <animate attributeName="opacity" values="1;0" keyTimes="0;1" dur="1.2987012987012987s" begin="-1.1688311688311688s" repeatCount="indefinite"></animate>
  </rect>
</g><g transform="rotate(36 50 50)">
  <rect x="45.5" y="14" rx="0" ry="0" width="9" height="16" fill="#ffdac4">
    <animate attributeName="opacity" values="1;0" keyTimes="0;1" dur="1.2987012987012987s" begin="-1.0389610389610389s" repeatCount="indefinite"></animate>
  </rect>
</g><g transform="rotate(72 50 50)">
  <rect x="45.5" y="14" rx="0" ry="0" width="9" height="16" fill="#ffdac4">
    <animate attributeName="opacity" values="1;0" keyTimes="0;1" dur="1.2987012987012987s" begin="-0.9090909090909091s" repeatCount="indefinite"></animate>
  </rect>
</g><g transform="rotate(108 50 50)">
  <rect x="45.5" y="14" rx="0" ry="0" width="9" height="16" fill="#ffdac4">
    <animate attributeName="opacity" values="1;0" keyTimes="0;1" dur="1.2987012987012987s" begin="-0.7792207792207793s" repeatCount="indefinite"></animate>
  </rect>
</g><g transform="rotate(144 50 50)">
  <rect x="45.5" y="14" rx="0" ry="0" width="9" height="16" fill="#ffdac4">
    <animate attributeName="opacity" values="1;0" keyTimes="0;1" dur="1.2987012987012987s" begin="-0.6493506493506493s" repeatCount="indefinite"></animate>
  </rect>
</g><g transform="rotate(180 50 50)">
  <rect x="45.5" y="14" rx="0" ry="0" width="9" height="16" fill="#ffdac4">
    <animate attributeName="opacity" values="1;0" keyTimes="0;1" dur="1.2987012987012987s" begin="-0.5194805194805194s" repeatCount="indefinite"></animate>
  </rect>
</g><g transform="rotate(216 50 50)">
  <rect x="45.5" y="14" rx="0" ry="0" width="9" height="16" fill="#ffdac4">
    <animate attributeName="opacity" values="1;0" keyTimes="0;1" dur="1.2987012987012987s" begin="-0.38961038961038963s" repeatCount="indefinite"></animate>
  </rect>
</g><g transform="rotate(252 50 50)">
  <rect x="45.5" y="14" rx="0" ry="0" width="9" height="16" fill="#ffdac4">
    <animate attributeName="opacity" values="1;0" keyTimes="0;1" dur="1.2987012987012987s" begin="-0.2597402597402597s" repeatCount="indefinite"></animate>
  </rect>
</g><g transform="rotate(288 50 50)">
  <rect x="45.5" y="14" rx="0" ry="0" width="9" height="16" fill="#ffdac4">
    <animate attributeName="opacity" values="1;0" keyTimes="0;1" dur="1.2987012987012987s" begin="-0.12987012987012986s" repeatCount="indefinite"></animate>
  </rect>
</g><g transform="rotate(324 50 50)">
  <rect x="45.5" y="14" rx="0" ry="0" width="9" height="16" fill="#ffdac4">
    <animate attributeName="opacity" values="1;0" keyTimes="0;1" dur="1.2987012987012987s" begin="0s" repeatCount="indefinite"></animate>
  </rect>
</g>
<!-- [ldio] generated by https://loading.io/ --></svg>